<svg xmlns="http://www.w3.org/2000/svg" xmlns:xlink="http://www.w3.org/1999/xlink">

<symbol id="linkedin" fill-rule="evenodd" clip-rule="evenodd" stroke-linejoin="round" stroke-miterlimit="1.414" viewBox="0 0 16 16"><path d="M13.632 13.635h-2.37V9.922c0-.886-.018-2.025-1.234-2.025-1.235 0-1.424.964-1.424 1.96v3.778h-2.37V6H8.51v1.04h.03c.318-.6 1.092-1.233 2.247-1.233 2.4 0 2.845 1.58 2.845 3.637v4.188zM3.558 4.955c-.762 0-1.376-.617-1.376-1.377 0-.758.614-1.375 1.376-1.375.76 0 1.376.617 1.376 1.375 0 .76-.617 1.377-1.376 1.377zm1.188 8.68H2.37V6h2.376v7.635zM14.816 0H1.18C.528 0 0 .516 0 1.153v13.694C0 15.484.528 16 1.18 16h13.635c.652 0 1.185-.516 1.185-1.153V1.153C16 .516 15.467 0 14.815 0z"/>
</symbol>
<symbol id="rss" fill-rule="evenodd" clip-rule="evenodd" stroke-linejoin="round" stroke-miterlimit="1.414" viewBox="0 0 16 16"><path d="M12.8 16C12.8 8.978 7.022 3.2 0 3.2V0c8.777 0 16 7.223 16 16h-3.2zM2.194 11.61c1.21 0 2.195.985 2.195 2.196 0 1.21-.99 2.194-2.2 2.194C.98 16 0 15.017 0 13.806c0-1.21.983-2.195 2.194-2.195zM10.606 16h-3.11c0-4.113-3.383-7.497-7.496-7.497v-3.11c5.818 0 10.606 4.79 10.606 10.607z"/>
</symbol>
</svg>
